<svg width="128" height="49" viewBox="0 0 128 49" fill="none" xmlns="http://www.w3.org/2000/svg">
<path fill-rule="evenodd" clip-rule="evenodd" d="M81.6395 40.5031L81.628 40.4902C80.5973 39.3338 80.2068 37.7641 80.2068 36.0391V6.71289C80.2068 4.99101 80.596 3.41968 81.639 2.27492C82.6382 1.17823 83.9491 0.642578 85.4392 0.642578C86.9423 0.642578 88.2714 1.16387 89.2786 2.26228C90.3531 3.39667 90.7478 4.98129 90.7478 6.71289V36.0391C90.7478 37.7772 90.3503 39.3623 89.2842 40.5089C88.2763 41.6115 86.9451 42.1348 85.4392 42.1348C83.9587 42.1348 82.6583 41.5947 81.6512 40.5157L81.6395 40.5031ZM88.1814 39.4922C88.8923 38.7305 89.2478 37.5794 89.2478 36.0391V6.71289C89.2478 5.17253 88.8923 4.02995 88.1814 3.28516C87.4874 2.52344 86.5733 2.14258 85.4392 2.14258C84.3389 2.14258 83.4418 2.52344 82.7478 3.28516C82.0538 4.04688 81.7068 5.18945 81.7068 6.71289V36.0391C81.7068 37.5625 82.0538 38.7135 82.7478 39.4922C83.4587 40.2539 84.3559 40.6348 85.4392 40.6348C86.5733 40.6348 87.4874 40.2539 88.1814 39.4922ZM114.23 40.534L114.225 40.5402C113.222 41.6159 111.915 42.1348 110.436 42.1348C108.936 42.1348 107.614 41.6051 106.597 40.5157L106.591 40.5091L106.585 40.5024C105.539 39.3551 105.153 37.7726 105.153 36.0391V10.498H98.426C96.9604 10.498 95.5738 10.1852 94.5584 9.2796L94.5501 9.27218L94.5419 9.26465C93.5753 8.37643 93.1174 7.20693 93.1174 5.90039C93.1174 4.56526 93.5819 3.36574 94.5987 2.48269L94.606 2.47637L94.6133 2.47015C95.64 1.60142 96.9852 1.27734 98.426 1.27734H122.395C123.877 1.27734 125.279 1.59852 126.297 2.52918C127.28 3.41275 127.754 4.58359 127.754 5.90039C127.754 7.22038 127.278 8.3937 126.289 9.27802L126.281 9.28542L126.273 9.29271C125.247 10.1835 123.865 10.498 122.395 10.498H115.668V36.0391C115.668 37.7844 115.284 39.3779 114.236 40.5278L114.23 40.534ZM114.168 8.99805H122.395C123.681 8.99805 124.646 8.71875 125.289 8.16016C125.933 7.58463 126.254 6.83138 126.254 5.90039C126.254 4.9694 125.933 4.21615 125.289 3.64062C124.663 3.0651 123.698 2.77734 122.395 2.77734H98.426C97.1903 2.77734 96.2424 3.05664 95.5823 3.61523C94.939 4.17383 94.6174 4.93555 94.6174 5.90039C94.6174 6.83138 94.9306 7.58463 95.5569 8.16016C96.1832 8.71875 97.1395 8.99805 98.426 8.99805H106.653V36.0391C106.653 37.5794 107 38.7305 107.694 39.4922C108.405 40.2539 109.319 40.6348 110.436 40.6348C111.536 40.6348 112.433 40.2624 113.127 39.5176C113.821 38.7559 114.168 37.5964 114.168 36.0391V8.99805ZM20.6785 41H13.3254V27.1973H7.72485V41H0.371826V21.8315H20.6785V41ZM24.4189 48.2988V21.8135H31.3022V24.6499C32.2537 23.4575 33.1269 22.6506 33.9219 22.229C34.9938 21.6629 36.1802 21.3799 37.4809 21.3799C40.0464 21.3799 42.0277 22.3615 43.4248 24.3247C44.834 26.2879 45.5386 28.7148 45.5386 31.6055C45.5386 34.7972 44.7738 37.2362 43.2441 38.9224C41.7145 40.5965 39.7814 41.4336 37.4448 41.4336C36.3127 41.4336 35.2768 41.2409 34.3374 40.8555C33.41 40.4701 32.5789 39.8979 31.8442 39.1392V48.2988H24.4189ZM31.79 31.4609C31.79 32.9785 32.1092 34.1047 32.7476 34.8394C33.3859 35.5741 34.1929 35.9414 35.1684 35.9414C36.0236 35.9414 36.7402 35.5921 37.3184 34.8936C37.8965 34.1829 38.1855 32.9845 38.1855 31.2983C38.1855 29.7446 37.8844 28.6064 37.2822 27.8838C36.68 27.1491 35.9453 26.7817 35.0781 26.7817C34.1387 26.7817 33.3558 27.1491 32.7295 27.8838C32.1032 28.6185 31.79 29.8109 31.79 31.4609ZM47.4182 31.4609C47.4182 28.5342 48.4058 26.1253 50.3811 24.2344C52.3563 22.3314 55.0242 21.3799 58.3845 21.3799C62.2266 21.3799 65.1293 22.494 67.0925 24.7222C68.6703 26.5168 69.4592 28.7269 69.4592 31.3525C69.4592 34.3034 68.4776 36.7243 66.5144 38.6152C64.5632 40.4941 61.8593 41.4336 58.4026 41.4336C55.3192 41.4336 52.8261 40.6507 50.9231 39.085C48.5865 37.1458 47.4182 34.6045 47.4182 31.4609ZM54.7893 31.4429C54.7893 33.1532 55.1325 34.4178 55.8191 35.2368C56.5176 36.0558 57.3909 36.4653 58.4387 36.4653C59.4986 36.4653 60.3658 36.0618 61.0403 35.2549C61.7268 34.4479 62.07 33.1532 62.07 31.3706C62.07 29.7085 61.7268 28.474 61.0403 27.667C60.3537 26.848 59.5046 26.4385 58.4929 26.4385C57.421 26.4385 56.5357 26.854 55.8371 27.6851C55.1386 28.5041 54.7893 29.7567 54.7893 31.4429ZM9.02636 13.45V1.875H10.8014V13.45H17.1764V1.875H18.9514V15H0.801356V1.875H2.57636V13.45H9.02636ZM27.2597 9.15L32.1197 15H34.2197L28.6778 8.21627L33.8447 1.875H31.9197L27.2976 7.625H24.2697V1.875H22.4947V15H24.2697V9.15H27.2597ZM37.0322 14.275C38.0489 14.8417 39.1905 15.125 40.4572 15.125C41.7405 15.125 42.8905 14.8417 43.9072 14.275C44.9239 13.6917 45.7155 12.9 46.2822 11.9C46.8656 10.8833 47.1572 9.725 47.1572 8.425C47.1572 7.10833 46.8656 5.95 46.2822 4.95C45.7155 3.95 44.9239 3.16667 43.9072 2.6C42.9072 2.03333 41.7572 1.75 40.4572 1.75C39.1739 1.75 38.0322 2.03333 37.0322 2.6C36.0322 3.16667 35.2405 3.95 34.6572 4.95C34.0739 5.95 33.7822 7.10833 33.7822 8.425C33.7822 9.725 34.0739 10.8833 34.6572 11.9C35.2405 12.9 36.0322 13.6917 37.0322 14.275ZM42.9822 12.925C42.2489 13.3417 41.4072 13.55 40.4572 13.55C39.5406 13.55 38.7155 13.3417 37.9822 12.925C37.2489 12.4917 36.6656 11.8917 36.2322 11.125C35.7989 10.3417 35.5822 9.44167 35.5822 8.425C35.5822 7.39167 35.7989 6.49167 36.2322 5.725C36.6656 4.95833 37.2489 4.36667 37.9822 3.95C38.7155 3.51667 39.5489 3.3 40.4822 3.3C41.4156 3.3 42.2489 3.51667 42.9822 3.95C43.7155 4.36667 44.2906 4.95833 44.7072 5.725C45.1405 6.49167 45.3572 7.39167 45.3572 8.425C45.3572 9.44167 45.1405 10.3417 44.7072 11.125C44.2906 11.8917 43.7155 12.4917 42.9822 12.925ZM47.1025 13.45L46.9775 14.975C47.2109 15.025 47.4275 15.0667 47.6275 15.1C47.8442 15.1333 48.0525 15.15 48.2525 15.15C48.9525 15.15 49.5275 14.9333 49.9775 14.5C50.4275 14.05 50.7775 13.4333 51.0275 12.65C51.2942 11.8667 51.4859 10.9583 51.6025 9.925C51.7359 8.89167 51.8275 7.80833 51.8775 6.675L52.0486 3.425H58.3525V15H60.1275V1.875H50.5025L50.2775 6.55C50.2275 7.4 50.1692 8.25 50.1025 9.1C50.0359 9.93333 49.9192 10.6833 49.7525 11.35C49.5859 12.0167 49.3359 12.55 49.0025 12.95C48.6859 13.35 48.2609 13.55 47.7275 13.55C47.6442 13.55 47.5442 13.5417 47.4275 13.525C47.3275 13.4917 47.2192 13.4667 47.1025 13.45ZM71.8234 12.9393V15H73.5234V6.85C73.5234 5.13333 73.0568 3.85833 72.1234 3.025C71.2068 2.175 69.8984 1.75 68.1984 1.75C67.1651 1.75 66.1818 1.90833 65.2484 2.225C64.3151 2.525 63.5151 2.95833 62.8484 3.525L63.6484 4.85C64.1818 4.38333 64.8318 4.00833 65.5984 3.725C66.3651 3.44167 67.1734 3.3 68.0234 3.3C69.2568 3.3 70.1818 3.6 70.7984 4.2C71.4318 4.8 71.7484 5.65833 71.7484 6.775V7.575H67.5734C66.3234 7.575 65.3234 7.75 64.5734 8.1C63.8401 8.43333 63.3068 8.88333 62.9734 9.45C62.6568 10 62.4984 10.6167 62.4984 11.3C62.4984 12.05 62.6901 12.7167 63.0734 13.3C63.4568 13.8667 64.0068 14.3167 64.7234 14.65C65.4568 14.9667 66.3151 15.125 67.2984 15.125C68.5484 15.125 69.5818 14.8667 70.3984 14.35C71.0066 13.973 71.4816 13.5027 71.8234 12.9393ZM71.7484 11.05V8.9H67.6234C66.3568 8.9 65.4734 9.125 64.9734 9.575C64.4901 10.025 64.2484 10.5833 64.2484 11.25C64.2484 12 64.5401 12.6 65.1234 13.05C65.7068 13.5 66.5234 13.725 67.5734 13.725C68.5734 13.725 69.4318 13.5 70.1484 13.05C70.8818 12.5833 71.4151 11.9167 71.7484 11.05Z" fill="white"/>
</svg>
